<?xml version="1.0" standalone="no"?>
<!DOCTYPE svg PUBLIC "-//W3C//DTD SVG 20010904//EN"
 "http://www.w3.org/TR/2001/REC-SVG-20010904/DTD/svg10.dtd">
<svg version="1.0" xmlns="http://www.w3.org/2000/svg"
 width="2135.000000pt" height="2135.000000pt" viewBox="0 0 2135.000000 2135.000000"
 preserveAspectRatio="xMidYMid meet">
<metadata>
Created by potrace 1.11, written by Peter Selinger 2001-2013
</metadata>
<g transform="translate(0.000000,2135.000000) scale(0.100000,-0.100000)"
fill="#000000" stroke="none">
<path d="M4778 21345 c-2 -2 -46 -5 -98 -9 -154 -10 -437 -42 -530 -61 -14 -3
-38 -8 -55 -11 -16 -3 -61 -12 -100 -20 -38 -8 -81 -17 -95 -20 -138 -28 -441
-118 -630 -187 -168 -62 -253 -99 -466 -203 -131 -64 -196 -98 -384 -206 -19
-11 -53 -33 -75 -48 -22 -15 -60 -40 -85 -56 -44 -28 -205 -141 -225 -156 -5
-5 -55 -43 -110 -85 -111 -86 -118 -92 -260 -220 -257 -232 -500 -499 -683
-753 -34 -47 -65 -89 -70 -95 -26 -32 -212 -322 -212 -331 0 -3 -8 -18 -18
-32 -74 -106 -260 -495 -344 -717 -95 -252 -189 -575 -224 -765 -2 -14 -9 -45
-14 -70 -5 -25 -12 -61 -15 -80 -3 -19 -10 -60 -15 -90 -5 -30 -12 -77 -15
-105 -4 -27 -9 -63 -11 -80 -3 -16 -7 -52 -9 -80 -3 -27 -7 -77 -10 -110 -3
-33 -8 -100 -11 -150 -7 -114 -7 -11704 0 -11840 3 -55 8 -122 10 -150 3 -27
8 -81 11 -120 4 -38 8 -79 10 -90 2 -11 7 -42 10 -70 9 -76 24 -167 45 -274
10 -53 21 -107 23 -121 34 -185 179 -640 277 -870 326 -763 797 -1392 1451
-1935 87 -73 255 -197 384 -282 550 -368 1138 -612 1788 -743 82 -17 164 -32
181 -35 17 -2 45 -6 61 -9 17 -2 73 -9 125 -16 52 -6 113 -13 135 -15 22 -3
87 -8 145 -13 138 -9 11859 -9 12015 1 66 4 129 9 140 11 11 2 51 7 88 11 37
3 76 8 85 10 9 1 46 6 82 10 36 4 67 8 70 10 3 2 26 6 50 10 25 3 52 8 60 10
8 2 31 7 50 10 115 20 351 79 530 134 315 97 690 261 988 433 112 64 363 226
437 281 24 18 56 41 71 52 46 33 167 128 199 156 17 14 71 61 120 104 50 43
151 140 226 214 520 521 909 1130 1162 1821 45 121 124 374 133 425 2 13 9 36
14 50 5 14 12 40 15 58 3 18 12 57 20 87 30 120 78 413 90 555 4 39 8 81 11
95 15 92 18 947 18 6135 -1 5197 -3 5955 -18 6085 -3 19 -7 62 -10 95 -14 130
-53 379 -81 505 -3 14 -7 36 -10 50 -7 34 -63 258 -75 295 -111 355 -193 563
-326 831 -208 421 -485 826 -788 1153 -90 97 -286 291 -366 361 -47 41 -87 77
-90 80 -12 14 -212 171 -280 221 -230 169 -501 332 -775 465 -418 203 -794
327 -1270 419 -16 3 -46 8 -65 10 -19 3 -44 7 -56 10 -11 2 -43 7 -70 10 -27
3 -62 8 -79 12 -16 3 -46 7 -65 8 -113 9 -198 17 -220 22 -23 6 -11917 13
-11922 8z"/>
</g>
</svg>
