<?xml version="1.0" encoding="UTF-8"?>
<svg width="395px" height="479px" viewBox="0 0 395 479" version="1.1" xmlns="http://www.w3.org/2000/svg" xmlns:xlink="http://www.w3.org/1999/xlink">
    <!-- Generator: Sketch 51.3 (57544) - http://www.bohemiancoding.com/sketch -->
    <title>MealsAtHomeLogo-Pink</title>
    <desc>Created with Sketch.</desc>
    <defs></defs>
    <g id="MealsAtHomeLogo-Pink" stroke="none" stroke-width="1" fill="none" fill-rule="evenodd" fill-opacity="0.2">
        <g id="MealsAtHomeLogo-06" fill="#FFC6C5" fill-rule="nonzero">
            <path d="M395,219.20917 C394.596569,211.709667 390.973059,204.748848 385.058771,200.111918 L216.740649,11.4037876 C216.740649,11.4037876 207.372952,0 197.6229,0 C187.872848,0 178.368596,11.4037876 178.368596,11.4037876 L9.91391827,200.002791 C4.00141559,204.637951 0.386115939,211.602129 0,219.100043 C0.163866418,218.745379 0,232.33171 0,232.33171 C0,232.33171 2.45799627,247.200285 14.5568001,247.200285 C21.2294196,246.883352 27.0071362,251.784376 27.7753578,258.4131 L27.5568693,446.65744 C27.5568693,446.65744 26.3551822,478.468005 51.5632995,478.795387 C76.7714167,479.122768 163.866418,478.959077 163.866418,478.959077 C174.053447,478.959077 178.095485,477.404015 181.29088,473.20262 C183.093411,470.856386 183.776188,465.018083 184.513586,460.953097 C186.288806,450.886117 186.753094,429.197095 188.856046,420.794304 C190.598157,415.277286 191.590232,409.551441 191.805642,403.770468 C191.521784,398.671498 189.767042,393.763486 186.753094,389.638502 C186.753094,389.638502 172.578649,377.661797 155.372675,363.36614 C138.166701,349.070483 142.700339,325.499018 142.700339,325.499018 L151.494503,173.239356 C160.479845,173.484892 160.152112,179.814267 160.152112,179.814267 C160.152112,179.814267 160.152112,280.238531 160.397912,284.19439 C160.643712,288.150249 159.414713,299.881418 174.954712,299.799573 C190.494711,299.717727 190.576644,284.19439 190.576644,284.19439 C190.576644,284.19439 190.576644,187.234914 190.576644,181.669429 C190.576644,181.669429 192.106064,172.857411 197.513656,172.857411 C202.921247,172.857411 204.505289,181.723993 204.505289,181.723993 C204.505289,187.18035 204.505289,284.248953 204.505289,284.248953 C204.505289,284.248953 204.505289,299.745009 220.127221,299.854136 C235.749153,299.963264 234.602088,288.232095 234.684021,284.248953 C234.765955,280.265812 234.957132,179.868831 234.957132,179.868831 C234.957132,179.868831 234.547466,173.539456 243.478186,173.239356 L252.27235,325.38989 C252.27235,325.38989 256.805988,348.961356 239.572703,363.257013 C222.339418,377.55267 208.192284,389.529375 208.192284,389.529375 C205.178336,393.654359 203.423594,398.562371 203.139736,403.661341 C203.373147,409.440417 204.364814,415.163901 206.089331,420.685177 C208.192284,429.087968 208.656572,450.695145 210.459103,460.84397 C211.16919,464.936238 211.879278,470.747259 213.654498,473.093493 C216.849893,477.294888 220.919242,478.877232 231.106271,478.84995 C231.106271,478.84995 318.173961,478.986359 343.409389,478.686259 C368.644818,478.38616 367.41582,446.602876 367.41582,446.602876 L367.224642,258.358536 C367.992864,251.729813 373.77058,246.828789 380.4432,247.145721 C392.514693,247.145721 395,232.277147 395,232.277147 C395,232.277147 394.808823,218.854507 395,219.20917 Z M383.310862,226.575253 C382.819263,237.869913 381.016732,237.487968 367.962041,239.097594 C357.96619,239.370412 356.300214,253.311405 356.300214,253.311405 C356.300214,253.311405 355.453571,425.595899 355.453571,445.975395 C355.453571,466.354891 339.749706,466.354891 339.749706,466.354891 C339.749706,466.354891 236.650418,466.354891 231.106271,466.354891 C228.075932,466.531183 225.19635,465.019449 223.623038,462.426314 C220.181843,453.06866 222.175551,434.271508 215.429717,416.538345 C213.19021,408.2174 212.94441,405.62563 213.818364,401.80618 C214.24628,398.357355 215.84673,395.159887 218.352002,392.748626 C223.40455,387.592368 236.377308,377.579952 247.656779,367.813071 C262.677868,354.82694 261.312314,323.889392 261.312314,323.889392 L252.245039,173.839556 C252.245039,173.212075 252.245039,172.584593 252.245039,171.984394 C252.245039,169.256215 251.999239,161.344497 243.696674,162.981404 C233.782756,164.945693 225.507502,167.701153 225.289013,176.976961 C225.070525,186.252769 224.742792,283.976136 224.742792,283.976136 C224.742792,283.976136 226.081034,289.132394 220.09991,289.432493 C214.118786,289.732593 213.927608,282.202819 213.927608,282.202819 L213.299454,181.423893 C213.300207,180.702339 213.245423,179.981795 213.135587,179.268632 C212.753232,176.540453 211.387679,170.456614 206.935975,168.001253 C204.05454,165.885259 200.697186,164.508159 197.158612,163.99083 C193.620037,164.508159 190.262683,165.885259 187.381249,168.001253 C182.902233,170.456614 181.563991,176.540453 181.181636,179.268632 C181.0718,179.981795 181.017016,180.702339 181.017769,181.423893 L180.280371,282.120974 C180.280371,282.120974 180.089193,289.54162 174.108069,289.350648 C168.126945,289.159675 169.465187,283.89429 169.465187,283.89429 C169.465187,283.89429 169.000899,186.198206 169.000899,176.922398 C169.000899,167.64659 160.507156,164.891129 150.593238,162.92684 C142.399917,161.289933 141.935629,169.283497 142.017562,171.929831 C142.058556,172.54754 142.058556,173.167283 142.017562,173.784992 L132.950287,323.834828 C132.950287,323.834828 131.584733,354.772376 146.605822,367.758508 C157.885294,377.525388 170.858052,387.537804 175.910599,392.694062 C178.415871,395.105323 180.016321,398.302791 180.444237,401.751616 C181.318191,405.62563 181.072392,408.162836 178.832884,416.483782 C172.168983,434.216944 174.190002,453.014097 170.639563,462.37175 C170.639563,462.37175 170.175275,466.4913 164.603817,466.518582 C159.032358,466.545864 57.0255134,466.273046 57.0255134,466.273046 C57.0255134,466.273046 38.426675,468.537434 38.426675,448.157938 C38.426675,427.778442 38.836341,253.720632 38.836341,253.720632 C38.836341,253.720632 36.869944,239.834202 26.2459379,239.097594 C13.1912466,237.624377 12.0714928,236.887769 11.5798935,225.456699 C11.0882943,214.02563 11.5798935,216.044482 17.9979949,209.087626 C18.6807716,209.087626 170.666874,35.2753524 181.53668,22.8894205 C181.891724,22.4801936 183.721565,20.4067777 184.049298,19.9429873 C185.606029,17.787726 190.549333,12.3859319 197.076678,12.3859319 C203.604024,12.3859319 209.749015,19.2609426 211.305746,21.4162039 C211.633479,21.8799943 212.69861,22.9167023 213.080965,23.3532109 C224.005393,35.7391428 376.10074,208.732963 376.783517,208.732963 C383.228929,215.826228 383.802461,215.280592 383.310862,226.575253 Z" id="Shape"></path>
        </g>
    </g>
</svg>