
<svg width="40px" height="35px" viewBox="0 0 40 35" version="1.1" xmlns="http://www.w3.org/2000/svg" xmlns:xlink="http://www.w3.org/1999/xlink">
    <!-- Generator: Sketch 51.3 (57544) - http://www.bohemiancoding.com/sketch -->
    <desc>Created with Sketch.</desc>
    <defs></defs>
    <g id="Symbols" stroke="none" stroke-width="1" fill="none" fill-rule="evenodd">
        <g id="DesaturatedFruitsIcon-40x40" transform="translate(0.000000, -3.000000)" fill-rule="nonzero">
            <g id="DesaturatedFruitsIcon">
                <g id="fruits_desaturated" transform="translate(0.000000, 3.125000)">
                    <g id="Group" transform="translate(0.645161, 0.000000)" fill="#CCEBFF">
                        <path d="M17.4193548,22.5806452 C17.4193548,23.6495085 16.5527344,24.516129 15.483871,24.516129 C14.4150076,24.516129 13.5483871,23.6495085 13.5483871,22.5806452 C13.5483871,21.5117818 14.4150076,20.6451613 15.483871,20.6451613 C16.5527344,20.6451613 17.4193548,21.5117818 17.4193548,22.5806452 Z" id="Shape"></path>
                        <path d="M13.5483871,23.8709677 C13.5483871,24.9398311 12.6817666,25.8064516 11.6129032,25.8064516 C10.5440398,25.8064516 9.67741935,24.9398311 9.67741935,23.8709677 C9.67741935,22.8021044 10.5440398,21.9354839 11.6129032,21.9354839 C12.6817666,21.9354839 13.5483871,22.8021044 13.5483871,23.8709677 Z" id="Shape"></path>
                        <path d="M14.1935484,20 C14.1935484,21.0688634 13.3269279,21.9354839 12.2580645,21.9354839 C11.1892011,21.9354839 10.3225806,21.0688634 10.3225806,20 C10.3225806,18.9311366 11.1892011,18.0645161 12.2580645,18.0645161 C13.3269279,18.0645161 14.1935484,18.9311366 14.1935484,20 Z" id="Shape"></path>
                        <path d="M9.67741935,24.516129 C9.67741935,25.5849924 8.81079887,26.4516129 7.74193548,26.4516129 C6.6730721,26.4516129 5.80645161,25.5849924 5.80645161,24.516129 C5.80645161,23.4472656 6.6730721,22.5806452 7.74193548,22.5806452 C8.81079887,22.5806452 9.67741935,23.4472656 9.67741935,24.516129 Z" id="Shape"></path>
                        <path d="M10.3225806,20.6451613 C10.3225806,21.7140247 9.45596016,22.5806452 8.38709677,22.5806452 C7.31823339,22.5806452 6.4516129,21.7140247 6.4516129,20.6451613 C6.4516129,19.5762979 7.31823339,18.7096774 8.38709677,18.7096774 C9.45596016,18.7096774 10.3225806,19.5762979 10.3225806,20.6451613 Z" id="Shape"></path>
                        <path d="M11.6129032,16.7741935 C11.6129032,17.8430569 10.7462827,18.7096774 9.67741935,18.7096774 C8.60855597,18.7096774 7.74193548,17.8430569 7.74193548,16.7741935 C7.74193548,15.7053302 8.60855597,14.8387097 9.67741935,14.8387097 C10.7462827,14.8387097 11.6129032,15.7053302 11.6129032,16.7741935 Z" id="Shape"></path>
                        <path d="M6.4516129,21.9354839 C6.4516129,23.0043473 5.58499242,23.8709677 4.51612903,23.8709677 C3.44726565,23.8709677 2.58064516,23.0043473 2.58064516,21.9354839 C2.58064516,20.8666205 3.44726565,20 4.51612903,20 C5.58499242,20 6.4516129,20.8666205 6.4516129,21.9354839 Z" id="Shape"></path>
                        <path d="M7.74193548,17.4193548 C7.74193548,18.4882182 6.875315,19.3548387 5.80645161,19.3548387 C4.73758823,19.3548387 3.87096774,18.4882182 3.87096774,17.4193548 C3.87096774,16.3504915 4.73758823,15.483871 5.80645161,15.483871 C6.875315,15.483871 7.74193548,16.3504915 7.74193548,17.4193548 Z" id="Shape"></path>
                        <path d="M3.87096774,18.7096774 C3.87096774,19.7785408 3.00434726,20.6451613 1.93548387,20.6451613 C0.866620484,20.6451613 0,19.7785408 0,18.7096774 C0,17.640814 0.866620484,16.7741935 1.93548387,16.7741935 C3.00434726,16.7741935 3.87096774,17.640814 3.87096774,18.7096774 Z" id="Shape"></path>
                        <path d="M31.2670111,8.3136971 C31.0833544,7.96181952 30.719506,7.74193548 30.3225806,7.74193548 C29.9256552,7.74193548 29.5618069,7.96181952 29.3781502,8.3136971 L23.4762475,19.5807081 C24.8368195,20.9658518 27.1103201,22.5806452 30.3225806,22.5806452 C33.5348412,22.5806452 35.8083418,20.9658518 37.1689138,19.5807081 L31.2670111,8.3136971 Z" id="Shape"></path>
                        <path d="M19.3548387,7.74193548 L17.4193548,7.74193548 C13.5064894,7.74193548 10.3225806,4.55802669 10.3225806,0.64516129 L10.3225806,0 L12.2580645,0 C16.1709299,0 19.3548387,3.18390879 19.3548387,7.09677419 L19.3548387,7.74193548 Z" id="Shape"></path>
                    </g>
                    <path d="M36.3826235,23.8709677 C38.2050152,22.9186618 39.1478705,21.7748235 39.2133947,21.6935484 L39.4761215,21.3637223 L32.483934,8.0141129 C32.187815,7.44833669 31.6066028,7.09677419 30.9677419,7.09677419 C30.328881,7.09677419 29.7476689,7.44833669 29.4515499,8.0141129 L27.1071698,12.4902344 C25.5831023,10.5374244 23.3537047,9.31546121 20.8814265,9.07856605 C21.3586819,6.37096774 22.5516633,3.82056452 24.360509,1.70961444 L23.3814265,0.871030726 C21.3782132,3.20785032 20.078125,6.04397677 19.5844884,9.04958419 C16.1006805,9.2121346 13.0071824,11.3986895 11.6708669,14.5838584 C11.2774068,14.3406628 10.8181073,14.1935484 10.3225806,14.1935484 C9.38067032,14.1935484 8.56382306,14.7057711 8.11302919,15.4611895 C7.6625504,15.078755 7.08763863,14.8387097 6.4516129,14.8387097 C6.26323081,14.8387097 6.08051919,14.8613911 5.90379282,14.9001386 C6.00207911,14.2143397 6.17282008,13.5405116 6.43082161,12.8981855 C6.77545363,13.3070816 7.28389613,13.5483871 7.83612653,13.5483871 C8.85175153,13.5483871 9.67741935,12.7227193 9.67741935,11.7070943 L9.67741935,11.5193423 C9.67741935,10.5030872 8.85175153,9.67741935 7.77406758,9.67741935 C7.29019661,9.67741935 6.82837702,9.87147177 6.48847024,10.2012979 C6.04051161,9.13873484 5.80645161,7.98513105 5.80645161,6.83278726 L5.80645161,5.80645161 L4.51612903,5.80645161 L4.51612903,6.83278726 C4.51612903,8.37103073 4.87934726,9.91084927 5.56766629,11.2878024 L5.66500758,11.4831149 C5.08379532,12.5863155 4.71805694,13.7884324 4.58007815,15.0252016 C4.11353323,13.5027092 3.87096774,11.9269783 3.87096774,10.3225806 L3.87096774,9.67741935 L-5.68434189e-14,9.67741935 L-5.68434189e-14,10.3225806 C-5.68434189e-14,12.514806 0.836063548,14.5753528 2.34910532,16.1523437 C1.03610129,16.2717364 -5.68434189e-14,17.3658015 -5.68434189e-14,18.7096774 C-5.68434189e-14,20.1329385 1.15738403,21.2903226 2.58064516,21.2903226 C2.61277726,21.2903226 2.64333419,21.281817 2.67546621,21.2805569 C2.61939266,21.4909904 2.58064516,21.7077243 2.58064516,21.9354839 C2.58064516,22.7104335 2.93031758,23.3974924 3.47215226,23.8709677 L-5.68434189e-14,23.8709677 L-5.68434189e-14,24.516129 C-5.68434189e-14,27.9882813 2.50850556,30.8807964 5.80645161,31.4897303 L5.80645161,34.1935484 L34.1935484,34.1935484 L34.1935484,31.4897303 C37.4914944,30.8807964 40,27.9882813 40,24.516129 L40,23.8709677 L36.3826235,23.8709677 Z M7.30122226,11.235509 C7.40076863,11.0704385 7.58190524,10.9677419 7.83612653,10.9677419 C8.13949097,10.9677419 8.38709677,11.2153477 8.38709677,11.5187122 L8.38709677,11.7064642 C8.38709677,12.0104587 8.13949097,12.2580645 7.83612653,12.2580645 C7.62632306,12.2580645 7.43731097,12.141192 7.34312,11.95281 L7.12827621,11.5237525 L7.30122226,11.235509 Z M30.5947581,8.61296621 C30.7412424,8.33417339 31.1948715,8.33417339 31.3407258,8.61296621 L37.9271673,21.186366 C37.1645035,21.9433594 34.8418598,23.8709677 30.9677419,23.8709677 C27.0652722,23.8709677 24.76594,21.9502898 24.0070565,21.1888861 L30.5947581,8.61296621 Z M19.4175277,10.3471523 C19.3781502,10.8136971 19.3548387,11.2830771 19.3548387,11.7549773 L19.3548387,12.7148437 C18.8974294,12.4432964 18.6432081,11.9729713 18.640058,11.9663558 L17.4877142,12.5472531 C17.5207913,12.6140373 18.3303931,14.1935484 20,14.1935484 C21.6696069,14.1935484 22.4792087,12.6140373 22.5129158,12.546308 L21.3605721,11.9657258 C21.3567919,11.9723412 21.1032006,12.4432964 20.6457913,12.7142137 L20.6457913,11.7549773 C20.6457913,11.2903226 20.6672127,10.827873 20.7091104,10.3676285 C23.0437248,10.5774319 25.1231729,11.812311 26.4323967,13.7799269 L22.4599924,21.3637223 L22.7227193,21.6935484 C22.7882435,21.7748235 23.7310988,22.9186618 25.5534904,23.8709677 L18.3508694,23.8709677 C18.5729587,23.4897934 18.7096774,23.0528604 18.7096774,22.5806452 C18.7096774,21.157384 17.5522934,20 16.1290323,20 C15.9012727,20 15.6845388,20.0387475 15.4741053,20.094821 C15.4753654,20.062689 15.483871,20.0321321 15.483871,20 C15.483871,18.5767389 14.3264869,17.4193548 12.9032258,17.4193548 C12.8710937,17.4193548 12.8405368,17.4278604 12.8084048,17.4291205 C12.8644783,17.218687 12.9032258,17.0019531 12.9032258,16.7741935 C12.9032258,16.3753781 12.8052545,16.0027092 12.6433342,15.6659526 C13.6129662,12.6934224 16.3167843,10.5837323 19.4175277,10.3471523 Z M10.3225806,20.6451613 C10.3225806,21.3567919 9.74388863,21.9354839 9.03225806,21.9354839 C8.3206275,21.9354839 7.74193548,21.3567919 7.74193548,20.6451613 C7.74193548,19.9335307 8.3206275,19.3548387 9.03225806,19.3548387 C9.74388863,19.3548387 10.3225806,19.9335307 10.3225806,20.6451613 Z M12.9032258,21.2903226 C12.1915952,21.2903226 11.6129032,20.7116306 11.6129032,20 C11.6129032,19.2883694 12.1915952,18.7096774 12.9032258,18.7096774 C13.6148564,18.7096774 14.1935484,19.2883694 14.1935484,20 C14.1935484,20.7116306 13.6148564,21.2903226 12.9032258,21.2903226 Z M6.4516129,21.9354839 C6.4516129,22.6471144 5.87292089,23.2258065 5.16129032,23.2258065 C4.44965976,23.2258065 3.87096774,22.6471144 3.87096774,21.9354839 C3.87096774,21.2238533 4.44965976,20.6451613 5.16129032,20.6451613 C5.87292089,20.6451613 6.4516129,21.2238533 6.4516129,21.9354839 Z M8.38709677,23.2258065 C9.09872734,23.2258065 9.67741935,23.8044985 9.67741935,24.516129 C9.67741935,25.2277596 9.09872734,25.8064516 8.38709677,25.8064516 C7.67546621,25.8064516 7.09677419,25.2277596 7.09677419,24.516129 C7.09677419,23.8044985 7.67546621,23.2258065 8.38709677,23.2258065 Z M12.2580645,22.5806452 C12.9696951,22.5806452 13.5483871,23.1593372 13.5483871,23.8709677 C13.5483871,24.5825983 12.9696951,25.1612903 12.2580645,25.1612903 C11.546434,25.1612903 10.9677419,24.5825983 10.9677419,23.8709677 C10.9677419,23.1593372 11.546434,22.5806452 12.2580645,22.5806452 Z M14.8387097,22.5806452 C14.8387097,21.8690146 15.4174017,21.2903226 16.1290323,21.2903226 C16.8406628,21.2903226 17.4193548,21.8690146 17.4193548,22.5806452 C17.4193548,23.2922757 16.8406628,23.8709677 16.1290323,23.8709677 C15.4174017,23.8709677 14.8387097,23.2922757 14.8387097,22.5806452 Z M10.3225806,15.483871 C11.0342112,15.483871 11.6129032,16.062563 11.6129032,16.7741935 C11.6129032,17.4858241 11.0342112,18.0645161 10.3225806,18.0645161 C9.61095008,18.0645161 9.03225806,17.4858241 9.03225806,16.7741935 C9.03225806,16.062563 9.61095008,15.483871 10.3225806,15.483871 Z M7.74193548,17.4193548 C7.74193548,18.1309854 7.16324347,18.7096774 6.4516129,18.7096774 C5.73998234,18.7096774 5.16129032,18.1309854 5.16129032,17.4193548 C5.16129032,16.7077243 5.73998234,16.1290323 6.4516129,16.1290323 C7.16324347,16.1290323 7.74193548,16.7077243 7.74193548,17.4193548 Z M2.59293097,10.9677419 C2.64648435,12.4414063 2.88589968,13.889554 3.30582161,15.2954889 C2.15599798,14.1110131 1.46389871,12.5960811 1.31867435,10.9677419 L2.59293097,10.9677419 Z M1.29032258,18.7096774 C1.29032258,17.9980469 1.8690146,17.4193548 2.58064516,17.4193548 C3.29227573,17.4193548 3.87096774,17.9980469 3.87096774,18.7096774 C3.87096774,19.421308 3.29227573,20 2.58064516,20 C1.8690146,20 1.29032258,19.421308 1.29032258,18.7096774 Z M32.9032258,30.3225806 L30.3225806,30.3225806 L30.3225806,31.6129032 L32.9032258,31.6129032 L32.9032258,32.9032258 L7.09677419,32.9032258 L7.09677419,31.6129032 L29.0322581,31.6129032 L29.0322581,30.3225806 L7.09677419,30.3225806 C4.11290323,30.3225806 1.64850048,28.0607359 1.32654992,25.1612903 L5.8981225,25.1612903 C6.18636597,26.2717364 7.187815,27.0967742 8.38709677,27.0967742 C9.3290071,27.0967742 10.1458544,26.5845515 10.5966482,25.8291331 C11.047127,26.2115676 11.6220388,26.4516129 12.2580645,26.4516129 C13.2091104,26.4516129 14.0322581,25.9289944 14.4799017,25.1612903 L38.6740802,25.1612903 C38.3514995,28.0607359 35.8870968,30.3225806 32.9032258,30.3225806 Z" id="Shape" fill="#6D98B5"></path>
                    <polygon id="Shape" fill="#6D98B5" points="30.3225806 12.9032258 31.6129032 12.9032258 31.6129032 14.1935484 30.3225806 14.1935484"></polygon>
                    <polygon id="Shape" fill="#6D98B5" points="33.5483871 17.4193548 34.8387097 17.4193548 34.8387097 18.7096774 33.5483871 18.7096774"></polygon>
                    <polygon id="Shape" fill="#6D98B5" points="27.0967742 17.4193548 28.3870968 17.4193548 28.3870968 18.7096774 27.0967742 18.7096774"></polygon>
                </g>
                <rect id="Rectangle-2" x="0" y="0" width="40" height="40"></rect>
            </g>
        </g>
    </g>
</svg>