
<svg width="160px" height="160px" viewBox="0 0 160 160" version="1.1" xmlns="http://www.w3.org/2000/svg" xmlns:xlink="http://www.w3.org/1999/xlink">
    <!-- Generator: Sketch 51.3 (57544) - http://www.bohemiancoding.com/sketch -->
    <desc>Created with Sketch.</desc>
    <defs></defs>
    <g id="Pink-Scream" stroke="none" stroke-width="1" fill="none" fill-rule="evenodd">
        <g id="Pink-Scream-Copy" transform="translate(-100.000000, -236.000000)" fill-rule="nonzero">
            <g id="Pink-Scream-scream-copy" transform="translate(100.000000, 236.000000)">
                <path d="M14.8924466,37.4572242 C14.894945,37.4609752 14.8968188,37.4650387 14.8990048,37.4687897 C1.77352162,57.2771483 -1.4034643,81.319438 5.38522338,103.34557 C5.3761668,103.342444 5.36711022,103.339631 5.35774135,103.336193 C8.75801881,114.379735 14.7209962,124.7481 22.623331,133.268163 C22.6252047,133.258786 22.6273908,133.249408 22.6289523,133.239718 C38.2746632,150.117615 60.6565961,159.406007 84.3848365,157.931242 C84.3870226,157.935306 84.3895209,157.939057 84.3913947,157.942808 C141.519366,154.278402 174.875689,92.2807716 147.261551,42.6110859 C119.106204,-7.79285637 47.1654144,-11.0530928 14.8924466,37.4572242 Z" id="Shape" fill="#FFC6C5"></path>
                <path d="M97.7114326,150.11312 C97.7092517,150.109056 97.7067592,150.105304 97.7048898,150.101552 C74.0324469,151.576686 51.702834,142.285969 36.0942259,125.403849 C36.0923565,125.413229 36.0901756,125.422608 36.0886178,125.432301 C28.2051771,116.910105 22.2562218,106.539458 18.8636286,95.4928392 C18.8726639,95.4959658 18.8816991,95.4987797 18.891046,95.502219 C12.1186336,73.4705746 15.2878372,49.422268 28.3827671,29.6089522 C28.3802747,29.6052002 28.3784053,29.6011356 28.3762244,29.5973837 C33.7600071,21.4838356 40.251391,14.8200956 47.4590548,9.58083832 C34.833648,15.2440637 23.4423364,24.4966352 14.8619326,37.4270359 C14.8644251,37.4307878 14.8662945,37.4348524 14.8684754,37.4386043 C1.77385705,57.2519202 -1.39565811,81.3002268 5.37706582,103.331871 C5.36803054,103.328745 5.35899526,103.325931 5.34964841,103.322491 C8.74224161,114.368798 14.6908854,124.739757 22.5746376,133.261953 C22.576507,133.252573 22.5786879,133.243193 22.5802457,133.233501 C38.1891654,150.115622 60.5184667,159.406338 84.1909097,157.931204 C84.1930906,157.935269 84.1955831,157.93902 84.1974524,157.942772 C99.6347018,156.950074 113.330945,151.674861 124.550898,143.525044 C116.411666,147.176923 107.405046,149.489987 97.7114326,150.11312 Z" id="Shape" fill="#F0B9B9"></path>
                <path d="M76.2019516,105.61377 C78.6425893,106.592022 81.3592738,106.591715 83.800222,105.613463 C86.3691019,104.583644 89.1131115,103.893619 91.9760479,103.596184 L91.9760479,102.85674 C91.9760479,96.3183864 86.6137867,91.0179641 79.9998447,91.0179641 C73.3859028,91.0179641 68.0239521,96.3183864 68.0239521,102.85674 L68.0239521,103.595877 C70.887199,103.893619 73.6324507,104.583951 76.2019516,105.61377 Z" id="Shape" fill="#656566"></path>
                <path d="M76.0074652,102.810086 L76.0074652,102.798479 C76.0074652,97.6316564 79.4808449,93.2446217 84.3113772,91.6566391 C83.0591115,91.244906 81.7172615,91.0179641 80.3196207,91.0179641 C73.5290757,91.0179641 68.0239521,96.292302 68.0239521,102.798479 L68.0239521,103.533979 C70.8119012,103.814984 73.4882686,104.45091 76.007784,105.389222 L76.0074652,102.810086 Z" id="Shape" fill="#4F4F51"></path>
                <path d="M122.322691,157.125749 L134.709213,157.125749 C141.025055,157.125749 145.97298,151.979398 145.72282,145.687892 C145.358666,136.528205 145.564166,123.810066 155.902247,106.431598 C160.537863,98.6384378 151.017721,90.1593671 143.778691,95.6369968 C129.434299,106.491067 116.894434,123.183935 114.067405,147.853974 C113.501499,152.789227 117.3401,157.125749 122.322691,157.125749 Z" id="Shape" fill="#FFC6C5"></path>
                <path d="M130.608456,156.986884 C128.274525,132.264994 137.118797,113.355477 148.940584,99.7897448 C150.739552,97.7257732 153.003678,96.8620747 155.209581,96.8953897 C152.587978,93.8522069 147.867214,92.6018057 143.847318,95.6365818 C129.469976,106.490725 116.901306,123.183706 114.067471,147.853911 C113.500578,152.788886 117.348309,157.125749 122.342033,157.125749 L130.624734,157.125749 C130.620351,157.079357 130.613152,157.033899 130.608456,156.986884 Z" id="Shape" fill="#F0B9B9"></path>
                <path d="M36.7191813,157.125749 L24.3326755,157.125749 C18.0168411,157.125749 13.0689223,151.979398 13.3190821,145.687892 C13.683235,136.528205 13.4777353,123.810066 3.13966735,106.431598 C-1.49594208,98.6384378 8.02418742,90.1593671 15.2632086,95.6369968 C29.6075824,106.491067 42.1474322,123.183935 44.9744575,147.853974 C45.5406745,152.789227 41.7017666,157.125749 36.7191813,157.125749 Z" id="Shape" fill="#FFC6C5"></path>
                <path d="M27.1278506,146.046929 C26.2111856,136.118586 24.1783115,122.43555 10.6600545,105.176853 C7.67988767,101.37172 8.33142211,96.8999646 10.774831,93.9137088 C4.80366936,93.4634819 -0.562054038,100.167379 3.12811828,106.430389 C13.3685939,123.80896 13.5724692,136.527402 13.2117431,145.68762 C12.9639372,151.979587 17.8652954,157.125749 24.1213873,157.125749 L36.391334,157.125749 C37.0592651,157.125749 37.7049215,157.044172 38.3233533,156.894408 C32.5149206,156.611381 27.6881208,152.114406 27.1278506,146.046929 Z" id="Shape" fill="#F0B9B9"></path>
                <path d="M118.760359,77.7166772 C113.233351,82.0899114 105.194352,81.1711674 100.804861,75.6649402 L96.6648485,70.4718221 C92.2753582,64.9652831 93.1975174,56.9560554 98.7242121,52.5828212 C104.250907,48.209587 112.290219,49.1280192 116.67971,54.6345582 L120.819722,59.8276763 C125.209839,65.3342153 124.28768,73.343443 118.760359,77.7166772 Z" id="Shape" fill="#EAE9E8"></path>
                <path d="M110.873544,67.6584368 L106.718583,62.4295096 C103.668176,58.5907134 102.930864,53.7386005 104.397006,49.8203593 C102.393351,50.1871253 100.448128,51.0355856 98.7416596,52.3902332 C93.1950089,56.7936229 92.26952,64.8580781 96.6748599,70.4025873 L100.829821,75.6315145 C105.235161,81.1760237 113.303188,82.1011029 118.850153,77.6973992 C120.556307,76.3430656 121.823593,74.6408067 122.634731,72.7733776 C118.484795,73.3141062 113.923951,71.497233 110.873544,67.6584368 Z" id="Shape" fill="#DBDBDB"></path>
                <path d="M41.2394491,77.7166772 C46.7664995,82.0899114 54.8055612,81.1711674 59.1950854,75.6649402 L63.3351301,70.4718221 C67.7246543,64.9652831 66.802488,56.9560554 61.2757505,52.5828212 C55.7490131,48.209587 47.7096384,49.1280192 43.3201142,54.6345582 L39.1800695,59.8276763 C34.7902322,65.3342153 35.7123986,73.343443 41.2394491,77.7166772 Z" id="Shape" fill="#EAE9E8"></path>
                <path d="M61.2701152,52.4192528 C59.5171663,51.0255432 57.511334,50.1682377 55.4497232,49.8203593 C57.0068207,53.8430763 56.3666214,58.7049051 53.3646102,62.4889066 L49.22008,67.712416 C46.2180688,71.4964176 41.6323244,73.2210665 37.3652695,72.6140829 C38.1699839,74.5457651 39.4588432,76.3068017 41.2117921,77.7005113 C46.7445175,82.0993386 54.7926024,81.1752178 59.1868824,75.6367671 L63.3314127,70.4132577 C67.7266328,64.8741796 66.8034674,56.8180801 61.2701152,52.4192528 Z" id="Shape" fill="#DBDBDB"></path>
                <path d="M91.9760479,123.083375 L91.9760479,103.473054 C88.9634439,103.655158 86.0843608,104.328789 83.414564,105.413946 C81.2214057,106.305479 78.7804574,106.305479 76.5876096,105.414257 C73.9171917,104.328789 71.0368666,103.654847 68.0239521,103.473054 L68.0239521,123.083686 C68.0239521,129.714158 73.3859028,135.08982 80.0001553,135.08982 C86.6144077,135.08982 91.9760479,129.714469 91.9760479,123.083375 Z" id="Shape" fill="#ED694A"></path>
                <path d="M76.007784,123.083375 L76.007784,105.111994 C73.4959199,104.205207 70.8163645,103.637104 68.0239521,103.473054 L68.0239521,123.083686 C68.0239521,129.714158 73.5290757,135.08982 80.3196207,135.08982 C81.7175803,135.08982 83.0594303,134.858843 84.3113772,134.438913 C79.4811637,132.820207 76.007784,128.349152 76.007784,123.083375 Z" id="Shape" fill="#D8553A"></path>
                <path d="M98.462253,77.6382769 C101.453675,81.3949682 105.885725,83.3532934 110.358892,83.3532934 C113.665432,83.3532934 116.994256,82.2827256 119.778843,80.0771055 C119.778843,80.0771055 119.778843,80.0771055 119.779157,80.0771055 C126.330092,74.887982 127.427041,65.3505376 122.223831,58.8166306 L118.072687,53.6040297 C109.71924,43.1137174 92.6545438,47.9337768 91.1188153,61.2905188 C90.6571238,65.3064001 91.7907946,69.2609274 94.3107955,72.425676 L98.462253,77.6382769 Z M99.6894548,54.84833 C104.194007,51.2803968 110.786059,52.0160208 114.38041,56.5286833 L118.531554,61.7412841 C122.117117,66.2442426 121.361023,72.8172785 116.846427,76.3936636 L116.846741,76.3936636 C112.331831,79.9694227 105.741663,79.2156428 102.155785,74.7133104 L98.0046416,69.5000834 C94.4106037,64.987108 95.1635595,58.433167 99.6894548,54.84833 Z" id="Shape" fill="#000000"></path>
                <path d="M41.927171,53.6027482 L37.7759782,58.8156515 C32.5730201,65.3499375 33.6699821,74.8879352 40.2206811,80.0773597 C40.220995,80.0773597 40.220995,80.0773597 40.220995,80.0773597 C46.7566285,85.2545754 56.3229529,84.1877021 61.5378379,77.6387027 L65.6890307,72.4254864 C68.2096893,69.2605541 69.3430597,65.3057975 68.8810488,61.2896831 C67.3443605,47.9230878 50.2725564,43.1209057 41.927171,53.6027482 Z M61.9963963,69.5000371 L57.8452034,74.7135665 C54.2589695,79.2161601 47.6690372,79.9706098 43.1540736,76.3940172 L43.1543874,76.3940172 C38.6394238,72.8174246 37.8833204,66.2443204 41.4692404,61.7407877 L45.6204333,56.5278844 C49.2054117,52.0249778 55.795344,51.270528 60.3115631,54.8474337 C64.8365705,58.4318525 65.5904768,64.9864868 61.9963963,69.5000371 Z" id="Shape" fill="#000000"></path>
                <path d="M79.5209581,89.1017964 C71.5968384,89.1017964 65.1497006,95.609213 65.1497006,103.608122 L65.1497006,114.087921 C65.1497006,115.394316 66.1984949,116.452967 67.4927252,116.452967 C68.7869554,116.452967 69.8357497,115.394316 69.8357497,114.087921 L69.8357497,106.262463 C71.6779227,106.562462 73.4795536,107.064873 75.2135103,107.774418 C77.9915833,108.911453 81.0515803,108.911453 83.8309008,107.774418 C85.5642337,107.064873 87.3643053,106.557425 89.2061665,106.257427 L89.2061665,123.450832 C89.2061665,128.846712 84.8559935,133.227067 79.5209581,133.227067 C74.7101639,133.227067 70.5867151,129.604735 69.9302441,124.800668 C69.7531061,123.506551 68.5692752,122.600574 67.2890788,122.781266 C66.0073231,122.959754 65.1113415,124.153452 65.2884795,125.447254 C66.6054757,135.084665 76.9611889,140.803209 85.7460497,136.524217 C90.5618337,134.178374 93.8922156,129.199596 93.8922156,123.450832 C93.8922156,116.464929 93.8922156,110.540196 93.8922156,103.607178 C93.8922156,95.6095278 87.4450777,89.1017964 79.5209581,89.1017964 Z M76.9739753,103.391544 C74.7497705,102.481161 72.433878,101.851258 70.0630976,101.509078 C71.0177094,97.1243154 74.8947866,93.8322022 79.5209581,93.8322022 C84.1471296,93.8322022 88.0245186,97.1246302 88.9791304,101.509392 C82.0021378,102.516732 80.9779807,105.030046 76.9739753,103.391544 Z" id="Shape" fill="#000000"></path>
                <path d="M149.261015,40.0107622 C127.762715,2.77116021 80.7183298,-10.7775593 42.7660737,9.2214283 C41.6188935,9.82617023 41.1788963,11.2462981 41.7832675,12.3932763 C42.3879511,13.5405671 43.8076295,13.9812317 44.9548096,13.3758647 C80.614893,-5.41426407 124.921171,7.24093753 145.194791,42.3590985 C154.091296,57.7698607 157.217526,75.6361563 154.136296,93.0589746 C150.42882,91.1153621 146.258534,91.4853954 142.866368,94.0609398 C125.232106,107.446207 114.765611,125.91662 112.228127,148.039861 C92.763565,157.277255 69.1621541,158.147021 47.771354,148.045799 C45.2323078,125.89818 34.7605001,107.441519 17.1324883,94.0612523 C13.6362608,91.4072634 9.45285016,91.1672418 5.84131086,93.0705381 C0.915717506,65.1708394 12.1637702,36.0835337 35.9154927,18.9685556 C36.9676734,18.2106749 37.2061094,16.7433554 36.4479892,15.6910731 C35.6901816,14.6387909 34.223316,14.400332 33.1708228,15.1585252 C7.29755151,33.8011407 -4.81018321,66.0068521 1.77821197,96.7446188 C-0.203025307,99.7336379 -0.867396039,103.86526 1.56290085,107.964066 C12.2200199,125.935684 11.7012732,139.038426 11.4219,146.077809 C11.1209644,153.672555 17.0746762,160 24.7877516,160 L37.1817345,160 C41.6507683,160 45.6669925,157.209436 47.2044826,152.94499 C68.1702855,162.338648 91.9066955,162.343648 112.794061,152.942802 C114.331239,157.209436 118.349963,159.999375 122.817434,159.999375 L135.211417,159.999375 C142.788244,159.999375 148.883829,153.81038 148.577269,146.077497 C148.511644,144.417972 148.445082,142.203086 148.518519,139.786306 C148.558832,138.462124 147.496338,137.367338 146.170722,137.367338 C144.90698,137.367338 143.863549,138.372116 143.825424,139.644105 C143.747925,142.206211 143.816987,144.527357 143.885424,146.263139 C144.083548,151.260776 140.191385,155.303327 135.211417,155.303327 L122.817434,155.303327 C119.189958,155.303327 116.486538,152.130542 116.889347,148.611162 C119.194958,128.431846 128.534585,110.83495 145.705725,97.8006514 C150.877567,93.8768607 157.74471,99.92428 154.398169,105.568538 C149.786949,113.345176 146.766656,120.796159 145.165416,128.347463 C144.896668,129.616015 145.706662,130.862377 146.975092,131.131464 C148.242271,131.401176 149.490076,130.590165 149.758824,129.321614 C151.252252,122.279417 154.090983,115.293163 158.437206,107.964066 C160.875627,103.851821 160.198444,99.7058229 158.201582,96.7143036 C162.352805,77.3156825 159.196576,57.2216863 149.261015,40.0107622 Z M37.1817345,155.303952 L24.7877516,155.303952 C19.8074711,155.303952 15.9156211,151.260151 16.1137449,146.263451 C16.556867,135.08182 15.5899982,122.412242 5.6016249,105.568226 C2.29758363,99.9961615 9.05441522,93.8240434 14.2940691,97.8006514 C30.7742757,110.31084 40.7048369,127.555205 43.1104464,148.611162 C43.5113814,152.127104 40.8135862,155.303952 37.1817345,155.303952 Z" id="Shape" fill="#000000"></path>
            </g>
        </g>
    </g>
</svg>