
<svg width="60px" height="64px" viewBox="0 0 60 64" version="1.1" xmlns="http://www.w3.org/2000/svg" xmlns:xlink="http://www.w3.org/1999/xlink">
    <!-- Generator: Sketch 51.3 (57544) - http://www.bohemiancoding.com/sketch -->
    <desc>Created with Sketch.</desc>
    <defs></defs>
    <g id="Symbols" stroke="none" stroke-width="1" fill="none" fill-rule="evenodd">
        <g id="Processing-Icon" transform="translate(-2.000000, 0.000000)" fill-rule="nonzero">
            <g>
                <rect id="even-spacer" x="0" y="0" width="64" height="64"></rect>
                <g id="processing" transform="translate(2.000000, 0.000000)">
                    <path d="M22.0689655,46.3448276 L22.0689655,43.1784108 C22.0689655,40.2258715 23.7505003,37.6815031 26.1794951,36.4992504 C26.7903711,36.2013681 27.1921182,35.5849888 27.1921182,34.8897583 C27.1921182,34.1940124 26.7903711,33.5776331 26.1794951,33.2802662 C23.7505003,32.0969828 22.0689655,29.552099 22.0689655,26.6011058 L22.0689655,22.0689655 L36.4137931,22.0689655 L36.4137931,26.6011058 C36.4137931,29.5531298 34.7322583,32.0980136 32.3027633,33.2802662 C31.6923877,33.5776331 31.2906404,34.1940124 31.2906404,34.8897583 C31.2906404,35.5849888 31.6923877,36.2013681 32.3027633,36.4992504 C34.7322583,37.6815031 36.4137931,40.2258715 36.4137931,43.1784108 L36.4137931,46.3448276 L22.0689655,46.3448276 Z" id="Shape" fill="#E6E9ED"></path>
                    <path d="M52.3349754,34.0946815 C52.3349754,46.5925355 42.2422645,56.7247224 29.7931034,56.7247224 C17.3439425,56.7247224 7.25123153,46.5925355 7.25123153,34.0946815 C7.25123153,21.5963254 17.3439425,11.4646406 29.7931034,11.4646406 L29.7931034,14.5505552 L39.0147783,8.37872589 L29.7931034,2.20689655 L29.7931034,5.29281122 C13.9483529,5.29281122 1.10344828,18.1874544 1.10344828,34.0946815 C1.10344828,50.0014064 13.9483529,62.8965517 29.7931034,62.8965517 C45.6378541,62.8965517 58.4827586,50.0014064 58.4827586,34.0946815 L52.3349754,34.0946815 Z" id="Shape" fill="#FF826E"></path>
                    <polygon id="Shape" fill="#CCD1D9" points="22.0689655 22.0689655 36.4137931 22.0689655 36.4137931 25.3793103 22.0689655 25.3793103"></polygon>
                    <path d="M38.6819923,24.2758621 L22.0076628,24.2758621 C21.4321421,24.2758621 20.9655172,23.7812501 20.9655172,23.1724138 L20.9655172,20.9655172 C20.9655172,20.3561423 21.4321421,19.862069 22.0076628,19.862069 L38.6819923,19.862069 C39.2570044,19.862069 39.7241379,20.3561423 39.7241379,20.9655172 L39.7241379,23.1724138 C39.7241379,23.7812501 39.2570044,24.2758621 38.6819923,24.2758621 Z" id="Shape" fill="#FCD770"></path>
                    <polygon id="Shape" fill="#CCD1D9" points="22.0689655 44.137931 36.4137931 44.137931 36.4137931 46.3448276 22.0689655 46.3448276"></polygon>
                    <path d="M38.6819923,50.7586207 L22.0076628,50.7586207 C21.4321421,50.7586207 20.9655172,50.2640087 20.9655172,49.6551724 L20.9655172,47.4482759 C20.9655172,46.838901 21.4321421,46.3448276 22.0076628,46.3448276 L38.6819923,46.3448276 C39.2570044,46.3448276 39.7241379,46.838901 39.7241379,47.4482759 L39.7241379,49.6551724 C39.7241379,50.2640087 39.2570044,50.7586207 38.6819923,50.7586207 Z" id="Shape" fill="#FCD770"></path>
                    <path d="M57.5315101,34.0007261 C57.5315101,49.4014175 45.0879534,61.9310846 29.7931034,61.9310846 C14.497752,61.9310846 2.05469679,49.4014175 2.05469679,34.0007261 C2.05469679,18.5995297 14.497752,6.07036756 29.7931034,6.07036756 L30.8204518,6.07036756 L30.8204518,3.86456841 L37.1867011,8.13928301 L30.8204518,12.4134927 L30.8204518,10.2081985 L29.7931034,10.2081985 C16.7631354,10.2081985 6.16409037,20.8805898 6.16409037,34.0007261 C6.16409037,47.1203574 16.7631354,57.7932537 29.7931034,57.7932537 C42.8230715,57.7932537 53.4221165,47.1203574 53.4221165,34.0007261 L51.3674197,34.0007261 C51.3674197,45.9783121 41.6888749,55.7243382 29.7931034,55.7243382 C17.8973321,55.7243382 8.21878716,45.9783121 8.21878716,34.0007261 C8.21878716,22.3691381 17.3445303,12.842833 28.7657551,12.3008539 L28.7657551,16.2780611 L40.8912753,8.13928301 L28.7657551,0 L28.7657551,4.0186258 C12.8117568,4.56616104 0,17.8049973 0,34.0007261 C0,50.5414424 13.3655618,64 29.7931034,64 C46.2201435,64 59.5862069,50.5414424 59.5862069,34.0007261 L57.5315101,34.0007261 Z" id="Shape" fill="#000000"></path>
                    <path d="M33.9247307,34.8198748 C36.8438308,33.4575702 38.7310345,30.5203059 38.7310345,27.3385642 L38.7310345,24.9655172 C39.8873115,24.9655172 40.8275862,24.0376145 40.8275862,22.8965517 L40.8275862,20.8275862 C40.8275862,19.6865235 39.8873115,18.7586207 38.7310345,18.7586207 L21.9586207,18.7586207 C20.8023438,18.7586207 19.862069,19.6865235 19.862069,20.8275862 L19.862069,22.8965517 C19.862069,24.0376145 20.8023438,24.9655172 21.9586207,24.9655172 L21.9586207,27.3385642 C21.9586207,30.5203059 23.8453126,33.4575702 26.7659483,34.8198748 C27.0331358,34.9451442 27.2,35.191137 27.2,35.4613753 C27.2,35.7331291 27.0331358,35.9786167 26.7659483,36.103381 C23.8453126,37.4661909 21.9586207,40.40295 21.9586207,43.5862069 L21.9586207,45.6551724 C20.8023438,45.6551724 19.862069,46.5830753 19.862069,47.7241379 L19.862069,49.7931034 C19.862069,50.9341663 20.8023438,51.862069 21.9586207,51.862069 L38.7310345,51.862069 C39.8873115,51.862069 40.8275862,50.9341663 40.8275862,49.7931034 L40.8275862,47.7241379 C40.8275862,46.5830753 39.8873115,45.6551724 38.7310345,45.6551724 L38.7310345,43.5862069 C38.7310345,40.40295 36.8438308,37.4661909 33.9237069,36.1048964 C33.6560076,35.9786167 33.4896552,35.7331291 33.4896552,35.4613753 C33.4896552,35.191137 33.6560076,34.9451442 33.9247307,34.8198748 Z M21.9586207,20.8275862 L38.7310345,20.8275862 L38.7330819,22.8965517 L21.9586207,22.8965517 L21.9586207,20.8275862 Z M38.7330819,49.7931034 L21.9586207,49.7931034 L21.9586207,47.7241379 L38.7310345,47.7241379 L38.7330819,49.7931034 Z M33.029499,37.9748451 C35.2181842,38.9961949 36.6344828,41.1985117 36.6344828,43.5862069 L36.6344828,45.6551724 L24.0551724,45.6551724 L24.0551724,43.5862069 C24.0551724,41.1985117 25.4714709,38.9961949 27.6601563,37.9748451 C28.6546876,37.5126616 29.2965517,36.5256601 29.2965517,35.4613753 C29.2965517,34.3965854 28.6546876,33.4121094 27.6611801,32.9484107 C25.4704473,31.9265559 24.0551724,29.723734 24.0551724,27.3375539 L24.0551724,24.9655172 L36.6344828,24.9655172 L36.6344828,27.3385642 C36.6344828,29.7252492 35.2181842,31.927566 33.029499,32.9494209 C32.0344559,33.4121094 31.3931034,34.3975957 31.3931034,35.4613753 C31.3931034,36.5246499 32.0344559,37.5126616 33.029499,37.9748451 Z" id="Shape" fill="#000000"></path>
                    <polygon id="Shape" fill="#000000" points="50.7586207 26.9491283 52.4991476 26.4827586 52.9655172 28.2232855 51.2249904 28.6896552"></polygon>
                    <polygon id="Shape" fill="#000000" points="47.4482759 22.1772396 49.5468984 20.9655172 50.7586207 23.0647315 48.6594065 24.2758621"></polygon>
                    <polygon id="Shape" fill="#000000" points="44.137931 18.2068966 45.7931034 16.5517241 47.4482759 18.2068966 45.7931034 19.862069"></polygon>
                    <polygon id="Shape" fill="#000000" points="39.7241379 15.3400019 40.9352686 13.2413793 43.0344828 14.45251 41.8227605 16.5517241"></polygon>
                    <polygon id="Shape" fill="#000000" points="56.2758621 27.9521124 58.116853 27.5862069 58.4827586 29.4271978 56.6417677 29.7931034"></polygon>
                    <polygon id="Shape" fill="#000000" points="55.1724138 22.7155301 56.7332788 22.0689655 57.3793103 23.6292975 55.8184453 24.2758621"></polygon>
                    <polygon id="Shape" fill="#000000" points="51.862069 17.8781933 53.8461781 16.5517241 55.1724138 18.535017 53.1883046 19.862069"></polygon>
                    <polygon id="Shape" fill="#000000" points="48.5517241 13.7933892 50.2068966 12.137931 51.862069 13.7933892 50.2068966 15.4482759"></polygon>
                    <polygon id="Shape" fill="#000000" points="44.137931 10.8116955 45.4649831 8.82758621 47.4482759 10.1538219 46.1218067 12.137931"></polygon>
                </g>
            </g>
        </g>
    </g>
</svg>