
<svg width="201px" height="141px" viewBox="0 0 201 141" version="1.1" xmlns="http://www.w3.org/2000/svg" xmlns:xlink="http://www.w3.org/1999/xlink">
    <!-- Generator: Sketch 51.3 (57544) - http://www.bohemiancoding.com/sketch -->
    <desc>Created with Sketch.</desc>
    <defs></defs>
    <g id="Symbols" stroke="none" stroke-width="1" fill="none" fill-rule="evenodd">
        <g id="tumbleweed" fill-rule="nonzero">
            <g>
                <path d="M195,71.500139 C195,94.4543309 186.229862,113.119778 166.318527,123.561032 C154.97497,129.509515 142.272433,138 128.5,138 C105.612472,138 86.3693701,128.962199 76.656368,108.834092 C71.0633932,97.2437243 62,85.3392549 62,71.500139 C62,55.7152579 69.8870367,40.1110549 80.298848,29.8121198 C93.7374424,16.5192079 107.557963,5 128.5,5 C145.023473,5 158.766163,12.8978609 171.770017,21.001139 C187.869034,31.0335044 195,51.2967031 195,71.500139 Z" id="Shape" fill="#FFEBEB"></path>
                <path d="M128.543343,137 C142.32503,137 155.035569,128.53568 166.386519,122.605529 C167.280488,122.138599 168.150814,121.654488 169,121.154581 C101.455045,141.946411 85.8893152,40.341035 104.945249,10 C95.775537,14.6052887 87.9807116,21.5870714 80.3107747,29.1452427 C69.8921773,39.4124398 62,54.9685557 62,70.7047929 C62,84.5015383 71.0693005,96.369322 76.6661988,107.923694 C86.3852535,127.99005 105.640898,137 128.543343,137 Z" id="Shape" fill="#F0B9B9" opacity="0.2"></path>
                <g id="Group" transform="translate(120.000000, 46.000000)" fill="#F2937E">
                    <ellipse id="Oval" transform="translate(9.172779, 9.203245) rotate(-45.000000) translate(-9.172779, -9.203245) " cx="9.17277925" cy="9.20324473" rx="5.65252205" ry="7.19520484"></ellipse>
                    <ellipse id="Oval" transform="translate(36.379002, 36.784711) rotate(135.000000) translate(-36.379002, -36.784711) " cx="36.3790025" cy="36.7847108" rx="5.65252205" ry="7.19520484"></ellipse>
                </g>
                <path d="M142.527317,69.472617 C140.490894,67.4361527 140.490894,64.1341854 142.527317,62.0977212 L145.208054,59.4169299 C145.763949,58.8610234 146.665431,58.8610234 147.221326,59.4169299 L152.583079,64.7787915 C153.138974,65.334698 153.138974,66.2361981 152.583079,66.7921046 L149.902342,69.4728959 C147.86564,71.5090812 144.56374,71.5090812 142.527317,69.472617 Z" id="Shape" fill-opacity="0.8" fill="#495059"></path>
                <path d="M161.864139,73.1603595 L159.691991,75.3375528 C158.879655,76.1520543 158.879655,77.4719361 159.691991,78.2861596 C160.098298,78.6931324 160.630796,78.8966188 161.163016,78.8966188 C161.695237,78.8966188 162.227735,78.6931324 162.634042,78.2861596 L164.806189,76.1089664 C165.618525,75.2944648 165.618525,73.9745831 164.806189,73.1603595 C163.993575,72.3466919 162.676752,72.3466919 161.864139,73.1603595 Z M137.8202,80.2654262 C138.943715,80.0252456 139.660091,78.9171899 139.420467,77.791343 C139.180843,76.6652181 138.074801,75.9485679 136.952118,76.1873587 C133.902736,76.8392379 131.496235,76.7750229 130.307267,76.5465177 C129.028718,72.8857085 127.358006,69.2574237 122.352527,66.8481114 C121.31693,66.3496809 120.074158,66.7869543 119.576882,67.8249573 C119.079607,68.8629603 119.515867,70.1086196 120.551464,70.60705 C124.579865,72.5462865 125.517838,75.3383867 126.816356,79.2032384 C128.058573,82.9012978 129.604758,87.5036486 134.513445,91.8544213 C134.909213,92.2049628 135.400664,92.3773146 135.890451,92.3773146 C136.465659,92.3773146 137.038649,92.1396359 137.449671,91.6734519 C138.210421,90.8108586 138.129715,89.4932007 137.269121,88.7304047 C134.327071,86.1231658 132.864088,83.4792326 131.827936,80.8706037 C132.004881,80.8756074 132.182103,80.8806112 132.364594,80.8806112 C134.021716,80.8800552 135.898216,80.6762908 137.8202,80.2654262 Z M172.754273,74.9750579 C172.853838,74.9892352 172.953127,74.9961849 173.051029,74.9961849 C174.069431,74.9961849 174.959146,74.2458983 175.107524,73.2056714 C175.389859,71.2264048 174.677921,69.2182276 173.049642,67.3985254 C172.030963,66.2601692 169.993604,64.5925259 168.498173,64.5925259 C168.476263,64.5925259 168.454353,64.5930818 168.432443,64.5936378 C167.284245,64.632278 166.384823,65.5963365 166.423096,66.7472022 C166.456654,67.7515688 167.193554,68.5663483 168.144007,68.7317505 C168.882015,69.0789561 171.233048,70.9056079 170.989264,72.6160612 C170.826742,73.7560854 171.616891,74.8121576 172.754273,74.9750579 Z M200.711515,80.504217 C200.127986,79.5126378 198.852765,79.1826673 197.862929,79.7672737 C197.508485,79.9768758 196.857839,80.3741191 196.023593,80.8970124 C196.398283,77.7321318 196.593254,74.4510526 196.593254,71.0509951 C196.593254,68.0812612 196.44654,65.1596191 196.154499,62.2971882 C197.776675,59.3613687 198.785925,56.220117 198.309173,52.6702245 C198.155803,51.5290884 197.107448,50.7276522 195.970343,50.8819349 C195.276709,50.9753385 194.710653,51.4023264 194.407795,51.9791491 C194.125737,50.8043766 193.819274,49.6418354 193.482857,48.4956955 C193.158644,47.3909757 192.002403,46.7582775 190.900521,47.0838002 C189.798361,47.4087668 189.167684,48.5674161 189.491898,49.672414 C190.590174,53.4152294 191.383374,57.3290067 191.867337,61.3787195 C190.891368,62.958519 189.709889,64.5360945 188.503171,66.1470285 C188.454359,66.2123554 188.405269,66.2779603 188.35618,66.3432872 C188.036958,65.9318667 187.679186,65.4826399 187.278149,64.9797616 C184.024643,60.8980802 178.579021,54.0665526 180.580603,48.7645088 C180.987187,47.6875877 180.445814,46.4841825 179.371389,46.0766537 C178.296964,45.668291 177.096071,46.2114773 176.689764,47.2886765 C173.849221,54.8129474 180.221167,62.8064602 184.028249,67.5825528 C184.642008,68.3525764 185.359493,69.2529759 185.796308,69.8762225 C184.014381,72.4879093 182.469583,75.2580485 181.742114,78.3970764 C181.481966,79.5187535 182.178651,80.6390406 183.297451,80.8997923 C183.455814,80.9367645 183.614176,80.9542777 183.770043,80.9542777 C184.715504,80.9542777 185.571105,80.3035104 185.794366,79.3405639 C186.677702,75.5288078 189.297203,72.0320108 191.830173,68.6503004 C192.011,68.4087298 192.192382,68.1666032 192.37321,67.9239207 C192.411483,68.9594218 192.432838,70.0013166 192.432838,71.0504391 C192.432838,75.5635561 192.080059,79.8515038 191.389753,83.9045525 C187.763499,86.3430534 183.840488,89.2065963 182.840945,90.7552612 C182.216924,91.7220996 182.491771,93.0147386 183.456368,93.640209 C183.806097,93.8667683 184.197982,93.9751832 184.58543,93.9751832 C185.266583,93.9751832 185.933592,93.640209 186.331301,93.0239121 C186.654406,92.5516124 188.082997,91.3798977 190.062946,89.9243584 C189.000169,93.8122829 187.587663,97.4466834 185.815999,100.799483 C184.929335,102.477412 183.951147,104.086122 182.886707,105.627003 C179.478444,106.647771 176.274859,106.664172 173.222981,105.687604 C168.58831,104.204544 164.676392,100.614344 161.35993,96.8376141 C165.644041,95.8385293 170.240439,95.2358537 174.698444,94.7882949 C175.84165,94.6734863 176.675342,93.6516065 176.561077,92.5060226 C176.446257,91.3601606 175.424527,90.5236981 174.284094,90.6390627 C161.431761,91.9294778 147.446762,94.5180916 141.170221,103.934341 C140.532056,104.89145 140.789153,106.186591 141.744321,106.825961 C142.099042,107.06364 142.500634,107.177614 142.897788,107.177614 C143.569235,107.177614 144.228201,106.852092 144.629238,106.250528 C147.242083,102.330635 151.68206,99.785109 156.931323,98.0663162 C160.891221,102.80905 165.743607,107.671319 171.95719,109.659759 C173.896647,110.280504 175.866056,110.592127 177.873739,110.592127 C178.232621,110.592127 178.592611,110.58073 178.953989,110.560715 C175.080899,114.808354 170.396861,118.394385 164.928774,121.268491 C163.668807,121.930934 162.410226,122.61506 161.123356,123.321702 C157.653801,122.411017 153.842004,120.498468 150.881095,118.757714 C152.582314,118.228983 154.34233,117.582107 156.151713,116.764826 C157.198959,116.291692 157.665449,115.056874 157.193412,114.007196 C156.721098,112.957517 155.488865,112.490777 154.442174,112.963077 C148.707006,115.553915 143.329611,116.342286 139.008336,116.975818 C135.166309,117.538741 131.848182,118.02494 129.38954,119.586115 C128.418841,120.202134 128.130405,121.490325 128.745274,122.463001 C129.141319,123.089861 129.815261,123.432619 130.504458,123.432619 C130.884972,123.432619 131.270478,123.328096 131.615492,123.108764 C133.326141,122.022948 136.09929,121.616531 139.610447,121.101699 C141.35715,120.845673 143.267763,120.564628 145.309837,120.159324 C146.576183,121.016913 149.298855,122.778794 152.584533,124.422252 C153.827582,125.043831 155.023206,125.583682 156.172237,126.044862 C147.234872,130.920474 137.994094,135.470563 128.161745,135.470563 C119.741901,135.470563 112.118031,134.242139 105.36252,131.810032 C105.690616,130.02341 105.815975,128.213993 105.73305,126.391789 C106.621378,126.254186 107.612601,126.014561 108.74083,125.740466 C111.851505,124.985176 115.722375,124.044746 118.886577,125.144462 C119.972928,125.52169 121.156903,124.945702 121.533257,123.857661 C121.909611,122.769898 121.334957,121.58206 120.249438,121.204832 C115.931214,119.703703 111.208625,120.850677 107.760979,121.687695 C106.950584,121.88451 105.956311,122.126081 105.192787,122.255623 C104.803952,120.440646 104.215709,118.6215 103.423064,116.808748 C100.90618,111.053585 96.8763918,106.726719 95.3188358,105.533044 C94.4061014,104.833907 93.1006498,105.008205 92.4028559,105.922781 C91.7050619,106.837358 91.8792331,108.145842 92.7916902,108.845535 C93.4365117,109.339796 97.2164138,113.003385 99.6126537,118.482507 C100.489611,120.488182 101.075913,122.476344 101.376553,124.442823 C101.384873,124.55652 101.400404,124.669383 101.426752,124.779188 C101.67636,126.610565 101.676083,128.422484 101.42481,130.211051 C98.7121223,128.977901 96.1566878,127.531536 93.767104,125.868896 C92.8238619,125.212569 91.5275627,125.446912 90.8722021,126.392901 C90.2171189,127.338613 90.4509187,128.637923 91.3949929,129.294528 C94.1947663,131.242382 97.1967225,132.917253 100.391432,134.317751 C99.9540624,135.516709 99.4002093,136.703435 98.7279309,137.876539 C98.1557731,138.875068 98.4996779,140.14936 99.4958925,140.722847 C99.8226021,140.910766 100.178433,141 100.530103,141 C101.250639,141 101.951206,140.624162 102.335881,139.953101 C103.10717,138.607089 103.747554,137.235224 104.258419,135.843343 C111.387233,138.365518 119.379137,139.63981 128.161467,139.63981 C140.170956,139.63981 151.336491,133.479065 161.187423,128.043309 C161.382394,127.935729 161.571542,127.831483 161.764573,127.725292 C162.845377,127.922941 163.867661,128.02524 164.826157,128.02524 C165.844282,128.02524 166.793071,127.91349 167.669196,127.689432 C168.782449,127.405052 169.455005,126.269753 169.171006,125.154192 C169.058683,124.712471 168.812125,124.341914 168.487634,124.070877 C175.379043,120.179061 181.064843,115.186416 185.473758,109.168278 C188.577222,108.038818 191.785243,106.238574 195.126112,103.74948 C196.047999,103.062296 196.23992,101.756314 195.554606,100.832286 C194.868738,99.9082572 193.56606,99.7158903 192.644173,100.402796 C191.624385,101.162534 190.623178,101.847216 189.638334,102.462123 C192.169918,97.5990202 194.017019,92.222198 195.167714,86.3775238 C196.759105,85.3264554 198.408739,84.2845606 199.975447,83.3585863 C200.965838,82.7742578 201.294766,81.4963521 200.711515,80.504217 Z M126.975551,16.9147179 C125.832622,16.8399394 124.836685,17.7042007 124.758751,18.8528424 C124.597061,21.2301863 126.871547,28.5473569 131.618543,33.4788442 C133.09872,35.0163896 134.715627,36.195054 136.425722,37.001494 C133.368297,38.5635023 130.328622,39.8074935 126.866,39.8074935 C126.855461,39.8074935 126.843813,39.8066596 126.833829,39.8074935 C125.68674,39.8074935 124.755978,40.7384716 124.753759,41.8882253 C124.75154,43.039925 125.681193,43.9750729 126.829668,43.9772968 L126.866555,43.9772968 C132.299974,43.9772968 136.650092,41.6366472 140.857379,39.373 C144.488071,37.4198642 147.917135,35.5745873 151.79272,35.39056 C152.940086,35.3363525 153.826196,34.3595066 153.771837,33.2091969 C153.717477,32.0594432 152.75704,31.1698852 151.595529,31.2254826 C148.01781,31.3953325 144.884948,32.6304282 141.919878,34.1095964 C139.350299,34.0706783 136.948235,32.9428855 134.774147,30.749291 C130.652836,26.5908853 128.868691,20.2230398 128.909183,19.1330532 C128.985452,17.9860794 128.120421,16.9931102 126.975551,16.9147179 Z M62.261541,41.1774129 C63.9231004,40.0279371 66.659917,39.2089878 69.8127476,38.7842238 C66.8033032,43.4521795 64.3538134,48.5026452 62.6398363,53.676815 C62.2779042,54.7695814 62.8680892,55.9496358 63.9586003,56.3124086 C64.1760368,56.3846852 64.3970789,56.4191556 64.6142381,56.4191556 C65.4862032,56.4191556 66.2982623,55.8654057 66.5880853,54.990581 C68.516171,49.1700917 71.4357564,43.5155605 75.0694989,38.4528635 C79.8855529,38.4695427 84.8394462,39.3410316 88.0824131,41.2574731 C88.4138374,41.4534539 88.7777109,41.5465795 89.1368696,41.5465795 C89.848808,41.5465795 90.5427191,41.1799148 90.9307214,40.5202519 C91.5142502,39.5283947 91.1847672,38.250211 90.1952089,37.6653266 C86.9841364,35.7677882 82.6856037,34.7172758 78.2603254,34.3775758 C79.3095124,33.1491518 80.3994687,31.9652056 81.5321359,30.8424166 C83.2383475,29.1508665 84.992262,27.4476408 86.7963755,25.770824 C87.1216983,26.0699379 87.4664352,26.3621021 87.8330821,26.6462047 C89.8396557,28.1998733 92.3362936,29.3824295 94.1936569,29.6587485 C94.2973831,29.6743158 94.3999998,29.6815434 94.5017846,29.6815434 C95.5151944,29.6815434 96.4032453,28.9376505 96.5566158,27.9027054 C96.7252401,26.7635151 95.9406379,25.7032732 94.8046427,25.5339791 C93.6353663,25.3599594 91.5719375,24.3939549 89.9084366,22.9589867 C93.7948383,19.5569832 97.9241921,16.3715315 102.360009,13.7670725 C102.755223,13.5349534 103.151822,13.3136759 103.548422,13.0932323 C105.887252,14.4272913 108.224696,16.171659 109.814978,18.2790775 C110.484206,19.1655777 110.976489,20.0537458 111.294601,20.9502535 C111.305694,20.9869477 111.31762,21.023086 111.330655,21.0589463 C111.831813,22.5367246 111.861489,24.0384097 111.421901,25.5951363 C111.109059,26.702914 111.751661,27.8551696 112.857426,28.1687388 C113.046851,28.2223903 113.237108,28.2479651 113.424592,28.2479651 C114.331779,28.2479651 115.165749,27.6483474 115.425064,26.7298787 C115.997776,24.7002965 116.028561,22.6665445 115.540438,20.6908917 C115.913742,20.2116423 116.492833,19.5230688 116.989553,18.9326247 C119.640671,15.7819214 123.531233,11.1542738 124.784822,6.73956411 C125.899739,6.66784349 127.025195,6.63142721 128.1623,6.63142721 C136.142555,6.63142721 143.47688,8.56065616 150.503632,11.5445673 C147.572952,13.4187549 145.025561,15.7910949 142.920531,17.7525704 L142.398294,18.2384914 C141.556005,19.0210245 141.505806,20.3406282 142.286803,21.1851524 C142.696992,21.6282635 143.253896,21.8525989 143.813019,21.8525989 C144.318892,21.8525989 144.826151,21.6688496 145.226634,21.2969031 L145.753585,20.8062563 C148.522573,18.225982 151.67374,15.2904406 155.178241,13.6939619 C160.279126,16.2153029 165.252988,19.2067197 170.234892,22.3182269 C172.394837,23.6670193 174.411394,25.2293055 176.284289,26.9931323 C174.520113,28.4564552 172.793932,30.1541211 171.155392,32.0519375 C168.614102,29.1294615 163.938384,25.5603879 159.509223,24.1721214 C158.412333,23.8288076 157.246107,24.4412127 156.903034,25.5398169 C156.560239,26.638699 157.171225,27.8081898 158.26756,28.1517816 C162.862572,29.5920316 167.089273,33.5505648 168.526739,35.3799965 C163.707357,42.0666929 161.230965,49.1945545 161.683866,55.2416032 C161.765682,56.3365935 162.677584,57.1705541 163.755892,57.1705541 C163.808033,57.1705541 163.860728,57.1686082 163.9137,57.1647164 C165.059125,57.0785405 165.918332,56.0780657 165.832079,54.9297019 C165.416897,49.3830296 168.224991,42.2793529 173.343903,35.9279086 C175.175751,33.6548099 177.160692,31.6555283 179.177249,30.0126258 C181.873851,33.1299707 184.204361,36.7435221 186.146314,40.835211 C186.639984,41.87516 187.881092,42.3166031 188.918353,41.8220645 C189.955614,41.3275258 190.396312,40.0832565 189.902919,39.0435856 C187.861123,34.7422946 185.414684,30.9210869 182.588563,27.5946959 C184.843081,26.2339501 187.05156,25.3777505 189.042603,25.1470214 C190.18359,25.0146997 191.001751,23.9805885 190.870013,22.8363945 C190.738275,21.6924784 189.70767,20.8724171 188.565019,21.0047389 C185.753042,21.3305395 182.713922,22.5475661 179.690056,24.4906944 C177.464936,22.3212848 175.047064,20.4109589 172.434774,18.7794539 C169.056186,16.6692555 165.678431,14.6127086 162.257688,12.7096104 C162.80433,12.8180252 163.356519,12.9675822 163.916196,13.1732925 C164.99395,13.5702577 166.189851,13.0156739 166.585619,11.9348609 C166.981664,10.8540479 166.428643,9.65620246 165.350057,9.2592372 C161.756807,7.93657562 158.418157,8.1361702 155.377373,9.15360218 C146.941721,5.16504641 138.079793,2.46162399 128.1623,2.46162399 C127.101464,2.46162399 126.058379,2.49136859 125.031934,2.54779993 C124.934032,2.0927354 124.793974,1.64601048 124.594287,1.21207296 C124.113652,0.16684229 122.878369,-0.289890155 121.834451,0.19186111 C120.794971,0.67222244 120.339575,1.90342634 120.812166,2.9467111 C114.457416,3.7984629 108.76801,5.72991575 103.563122,8.37273703 C100.164288,6.720661 97.0106256,5.8625155 95.5523583,5.8625155 C94.4036053,5.8625155 93.4722889,6.79571746 93.4722889,7.9474171 C93.4722889,9.09911675 94.4033279,10.0323187 95.5523583,10.0323187 C96.1081528,10.0323187 97.3811553,10.3469999 98.9808673,10.9474515 C94.8908962,13.4676806 91.0960176,16.3993302 87.4930601,19.5327984 C87.4237244,19.2878919 87.3729707,19.0396496 87.3477325,18.7872375 C87.2331901,17.6413756 86.2139561,16.806581 85.0704726,16.9205556 C83.9275438,17.0353642 83.0935746,18.057244 83.2081171,19.2031059 C83.3207182,20.3306207 83.6618496,21.4295028 84.2118199,22.4819612 C82.3014842,24.2513477 80.438574,26.0615982 78.6064489,27.8779645 C76.6029261,29.8644588 74.7192152,32.021637 72.9689062,34.3025193 C67.6675027,34.5557654 62.7405116,35.7794636 59.8988595,37.7453869 C58.9533986,38.39949 58.715716,39.6976887 59.3683031,40.645624 C60.0208902,41.5935593 61.3166348,41.831516 62.261541,41.1774129 Z M120.171782,7.25634172 C118.641406,10.5001706 115.484415,14.2532715 113.809543,16.2439356 C113.746864,16.3184361 113.688067,16.3887667 113.628161,16.4596534 C113.470631,16.2258664 113.306444,15.9934694 113.132827,15.7630183 C111.718103,13.8882747 109.88265,12.2670552 107.920728,10.9082554 C111.901704,9.13859089 115.968101,7.92490017 120.171782,7.25634172 Z M136.125637,47.362065 L133.95349,49.5392583 C133.141154,50.3537598 133.141154,51.6736415 133.95349,52.4878651 C134.359797,52.8948379 134.892295,53.0983243 135.424515,53.0983243 C135.956736,53.0983243 136.489233,52.8948379 136.89554,52.4878651 L139.067687,50.3106719 C139.880024,49.4961703 139.880024,48.1762886 139.067687,47.362065 C138.254796,46.5481194 136.937974,46.5481194 136.125637,47.362065 Z M111.931379,89.6469275 C112.33935,90.0677996 112.881278,90.2790697 113.42376,90.2790697 C113.945996,90.2790697 114.468787,90.0833669 114.872875,89.6897375 C115.69686,88.8874673 115.715996,87.5675856 114.915586,86.7416866 C112.844946,84.6050794 108.36725,73.8467091 110.961235,67.4644083 C112.529607,63.6053945 113.151132,56.749126 112.582857,49.5715048 C112.291925,45.8984641 111.220828,36.916152 107.563788,32.8433662 C106.795272,31.9871666 105.479836,31.9182259 104.626176,32.6885275 C103.772515,33.4588292 103.70318,34.7770429 104.471696,35.6329645 C106.388688,37.7681818 107.907693,43.2353498 108.435476,49.9011972 C108.711155,53.3840948 108.687026,56.8102831 108.400808,59.738041 C104.48279,52.9951912 98.5745604,50.4424377 95.0553604,48.9240733 C94.2355357,48.570752 93.52748,48.2649664 93.0410212,47.9942072 C92.0359316,47.4340636 90.7701401,47.7976705 90.2126815,48.803983 C89.6546682,49.8105735 90.0163229,51.0801396 91.0205804,51.6388932 C91.6903628,52.0119516 92.4877227,52.3558214 93.4107188,52.7541766 C97.6695916,54.5913919 104.055682,57.3515236 106.845194,66.603761 C104.05069,74.8163274 108.904185,86.5231889 111.931379,89.6469275 Z M93.8996738,68.1604875 C91.0510881,69.0197449 86.0087225,73.9787529 85.2385422,75.9085378 C84.8117119,76.9776754 85.3303426,78.1910881 86.3970022,78.6186319 C86.6504933,78.7203751 86.9120273,78.7684669 87.1691239,78.7684669 C87.9845111,78.7684669 88.7574649,78.2842137 89.089444,77.4861134 C89.6740822,76.3516489 93.6145656,72.6010499 95.0986258,72.1532131 C96.1988438,71.8215747 96.8220326,70.6587556 96.4908856,69.5559816 C96.1594612,68.4534857 94.9987825,67.8288491 93.8996738,68.1604875 Z M73.1147884,49.588184 C72.2866434,50.3857283 72.2600185,51.70561 73.0559918,52.5359569 C73.4645174,52.9618328 74.0097729,53.1764386 74.5561378,53.1764386 C75.0744911,53.1764386 75.5936764,52.9835157 75.9969325,52.5948901 C77.2089196,51.4281791 79.6650656,50.9075097 81.1108525,51.1702073 C82.2388048,51.3739717 83.323769,50.6236851 83.5287251,49.4906106 C83.7336813,48.357814 82.9834696,47.2725532 81.8530212,47.0671209 C79.35777,46.6137243 75.4464075,47.3426059 73.1147884,49.588184 Z M79.9734705,110.64828 C80.9730132,107.682716 82.3178474,105.163043 83.8401809,103.475107 C84.6103612,102.620853 84.543799,101.302639 83.6918026,100.530114 C82.8395288,99.7584223 81.5243703,99.8248612 80.7536352,100.678837 C79.4759179,102.095736 78.3765319,103.852891 77.460192,105.770167 C76.2734431,103.426459 74.9727064,101.063015 73.7044187,98.7621173 C70.2817339,92.5513344 66.7786197,86.1904386 65.0305293,79.4815032 C65.6820071,77.2498245 66.4840818,75.3317151 67.4165076,73.6529523 C67.4755816,73.7132754 67.5299407,73.7691508 67.5917881,73.8319758 C70.596795,76.8987271 76.849761,83.279916 76.849761,88.0954827 C76.849761,89.2471824 77.7808,90.1803843 78.9298304,90.1803843 C80.0788607,90.1803843 81.0098998,89.2471824 81.0098998,88.0954827 C81.0098998,81.5747444 74.2116783,74.6370258 70.5596311,70.9100557 C70.3097455,70.6548638 70.0484888,70.3879964 69.8096968,70.140866 C72.8718363,66.4344669 76.7779293,64.0557332 81.0914385,61.4301471 C81.8519119,60.967021 82.6201508,60.499447 83.393382,60.0188077 C84.3696279,59.4116844 84.6699899,58.126551 84.0642737,57.1480372 C83.4585575,56.1698014 82.17668,55.8687416 81.2001568,56.4755869 C80.438574,56.9489986 79.6814288,57.4099008 78.9320491,57.8660773 C73.9884175,60.8750073 69.1831799,63.8010972 65.5230898,68.8988206 C65.5070039,68.9202256 65.4895313,68.9399627 65.4740001,68.9622017 C65.4642931,68.976101 65.4579143,68.9900003 65.4484846,69.0041777 C64.9048932,69.7689196 64.3868172,70.5820312 63.8978622,71.4515742 C63.8959208,71.3178625 63.8917607,71.1847068 63.8917607,71.0509951 C63.8917607,68.7692788 64.0662092,66.4277953 64.410114,64.0921495 C64.5776289,62.9529592 63.7921947,61.8935512 62.6559221,61.7250912 C61.5238097,61.5577431 60.4621423,62.344168 60.29435,63.4833582 C59.9207695,66.0199885 59.7316219,68.5660703 59.7316219,71.0509951 C59.7316219,73.956236 60.1021516,76.7594557 60.7369888,79.4828932 C59.794856,83.0925528 59.186089,87.3710489 59.0013789,92.5210339 C58.9600548,93.6718995 59.8572581,94.637904 61.0054564,94.679602 C61.0309719,94.6804359 61.0564874,94.6809919 61.0814483,94.6809919 C62.1958108,94.6809919 63.1185296,93.7961597 63.1587442,92.6711468 C63.2211463,90.9315049 63.332638,89.3077835 63.4879499,87.7844154 C65.3672232,92.2547224 67.7326782,96.5498977 70.0629106,100.778356 C71.6845327,103.721125 73.2162958,106.500438 74.5614073,109.294484 C74.8548358,109.903554 75.1585259,110.504283 75.4708136,111.097785 C73.9298982,116.517417 73.6988719,121.958177 74.9047574,124.173732 C75.2822207,124.867865 75.9966552,125.261217 76.7335544,125.261217 C77.069971,125.261217 77.4111024,125.179211 77.7272729,125.006303 C78.7356906,124.455055 79.1078843,123.189381 78.5576366,122.178342 C78.2916651,121.664622 78.1091737,119.526347 78.599238,116.315599 C80.1556846,118.607879 81.8696618,120.747544 83.7339587,122.713745 C84.1427616,123.145181 84.6918999,123.362566 85.2421476,123.362566 C85.7566181,123.362566 86.272198,123.172145 86.6746221,122.789079 C87.5074819,121.995983 87.5410403,120.676101 86.7497819,119.841585 C84.172992,117.123151 81.9043296,114.039442 79.9734705,110.64828 Z M141.494435,70.7279743 C142.910824,72.1476533 144.77096,72.8570758 146.631374,72.8570758 C148.492066,72.8570758 150.35248,72.1470974 151.768868,70.7279743 L154.434408,68.0562424 C155.094483,67.3943556 155.458079,66.5145272 155.458079,65.5788233 C155.458079,64.6428415 155.094483,63.763013 154.434408,63.1011263 L149.103051,57.7573844 C148.442699,57.0957757 147.564909,56.7313349 146.631097,56.7313349 C145.697562,56.7313349 144.819773,57.0960536 144.15942,57.7573844 L141.49388,60.4293943 C138.661658,63.2687523 138.661658,67.8883383 141.49388,70.7276963 L141.494435,70.7279743 Z M144.43593,63.3780012 L146.631652,61.1771791 L151.022817,65.5785453 L148.827373,67.7793675 C147.61705,68.9925022 145.646808,68.9930582 144.43593,67.7796455 C143.22533,66.5656768 143.22533,64.5914139 144.43593,63.3780012 Z M105.005858,102.708697 C107.925443,106.249694 111.234695,110.262991 117.310716,113.145437 C117.598043,113.28165 117.900901,113.346421 118.199044,113.346421 C118.9781,113.346421 119.725261,112.905534 120.080537,112.152745 C120.57171,111.11224 120.128517,109.869083 119.090146,109.37649 C115.623364,107.732198 113.198003,105.652578 111.148719,103.460096 C111.594408,103.347233 112.053965,103.226865 112.530162,103.101771 C116.995655,101.929222 122.552768,100.469513 124.988391,103.409224 C125.39969,103.905709 125.992371,104.162012 126.58949,104.162012 C127.057921,104.162012 127.529126,104.004394 127.917406,103.681095 C128.801297,102.945264 128.922496,101.630942 128.188647,100.744998 C124.06068,95.7631948 116.787093,97.6729647 111.475705,99.0681809 C110.219621,99.3978733 109.017895,99.7125545 108.06772,99.8774007 C104.069272,95.0298655 99.8622621,90.0714135 89.2849705,89.3244627 C88.1395456,89.2435685 87.1444404,90.1089417 87.0637337,91.2575835 C86.983027,92.4062253 87.8463945,93.4030862 88.9923741,93.4839804 C97.9191999,94.1138987 101.046515,97.9070297 105.005858,102.708697 Z" id="Shape" fill-opacity="0.8" fill="#000000"></path>
                <g id="Trail" transform="translate(0.000000, 5.000000)" fill="#000000" fill-opacity="0.8">
                    <path d="M16.2418077,4 L50.3173989,4 C51.7762273,4 52.5222832,3.33333333 52.5555666,2 C52.5222832,0.666666667 51.7762273,0 50.3173989,0 L16.2418077,0 C14.7829792,0 14.03571,0.666666667 14,2 C14.035446,3.33333333 14.7827152,4 16.2418077,4 Z" id="Shape"></path>
                    <path d="M27.2418077,129 L61.3173989,129 C62.7762273,129 63.5222832,128.333333 63.5555666,127 C63.5222832,125.666667 62.7762273,125 61.3173989,125 L27.2418077,125 C25.7829792,125 25.03571,125.666667 25,127 C25.035446,128.333333 25.7827152,129 27.2418077,129 Z" id="Shape-Copy"></path>
                    <path d="M2.99994288,20 L23.0000571,20 C25.2039441,20 25.826458,19.102 25.826458,18 C25.826458,16.898 25.2039441,16 23.0000571,16 L2.99994288,16 C0.795656085,16 0.19302306,16.898 0.19302306,18 C0.19302306,19.102 0.79605592,20 2.99994288,20 Z" id="Shape"></path>
                    <path d="M39,18 C39,16.898 38.1019592,16 37,16 C35.8978409,16 35,16.898 35,18 C35,19.102 35.8980408,20 37,20 C38.1019592,20 39,19.102 39,18 Z" id="Shape"></path>
                    <path d="M2.91884481,51 L24.0811552,51 C26.2454512,51 26.5622225,50.1044 26.5622225,49 C26.5622225,47.8956 26.2454512,47 24.0811552,47 L2.91884481,47 C0.75454877,47 0.362580294,47.8956 0.362580294,49 C0.362580294,50.1044 0.75454877,51 2.91884481,51 Z" id="Shape"></path>
                    <path d="M8,65 C8,66.102 8.89804078,67 10,67 C11.1019592,67 12,66.102 12,65 C12,63.898 11.1019592,63 10,63 C8.89804078,63 8,63.898 8,65 Z" id="Shape"></path>
                    <path d="M36,109 C36,110.102 36.8980408,111 38,111 C39.1019592,111 40,110.102 40,109 C40,107.898 39.1019592,107 38,107 C36.8980408,107 36,107.898 36,109 Z" id="Shape-Copy-2"></path>
                    <path d="M25.0412901,65 C25.0412901,66.102 25.7348357,67 27.8636013,67 L37.1363987,67 C39.2651643,67 40.014373,66.102 40.014373,65 C40.014373,63.898 39.2651643,63 37.1363987,63 L27.8636013,63 C25.7344495,63 25.0412901,63.898 25.0412901,65 Z" id="Shape"></path>
                    <path d="M3.03218005,99 L19.9678199,99 C22.1947087,99 22.912066,98.1044 22.912066,97 C22.912066,95.8956 22.1947087,95 19.9678199,95 L3.03218005,95 C0.805291329,95 0.3627836,96.1680114 0.3627836,97.2724114 C0.3627836,98.3770114 0.805291329,99 3.03218005,99 Z" id="Shape"></path>
                </g>
            </g>
        </g>
    </g>
</svg>